<svg width="24" height="24" viewBox="0 0 24 24" fill="none" xmlns="http://www.w3.org/2000/svg">
<path d="M19 4H5C3.89543 4 3 4.89543 3 6V19C3 20.1046 3.89543 21 5 21H19C20.1046 21 21 20.1046 21 19V6C21 4.89543 20.1046 4 19 4Z" stroke="white" stroke-width="2"/>
<path d="M20 4H4C3.44772 4 3 4.44772 3 5V8C3 8.55228 3.44772 9 4 9H20C20.5523 9 21 8.55228 21 8V5C21 4.44772 20.5523 4 20 4Z" fill="white"/>
<path d="M7 2V6" stroke="white" stroke-width="2"/>
<path d="M17 2V6" stroke="white" stroke-width="2"/>
<path d="M12 13V19" stroke="white" stroke-width="2" stroke-linecap="round"/>
<path d="M9 16H15" stroke="white" stroke-width="2" stroke-linecap="round"/>
</svg>
