<svg width="20" height="20" viewBox="0 0 20 20" fill="none" xmlns="http://www.w3.org/2000/svg">
<path d="M7.4935 10.833H9.99351H12.4935" stroke="#FF0000" stroke-width="1.5" stroke-linecap="round" stroke-linejoin="round"/>
<path d="M2.53265 3.57858C2.51207 3.42421 2.56591 3.26981 2.69277 3.17948C3.27266 2.7666 5.26183 1.66699 10 1.66699C14.7382 1.66699 16.7273 2.76659 17.3072 3.17948C17.4341 3.26981 17.4879 3.42421 17.4673 3.57858L16.0513 14.1985C15.914 15.229 15.3037 16.1363 14.4011 16.6521L14.1345 16.8044C11.5726 18.2684 8.42741 18.2684 5.8655 16.8044L5.59894 16.6521C4.69633 16.1363 4.08604 15.229 3.94865 14.1985L2.53265 3.57858Z" stroke="#FF0000" stroke-width="1.5"/>
<path d="M2.5 4.16699C4.64286 6.38921 15.3572 6.38918 17.5 4.16699" stroke="#FF0000" stroke-width="1.5"/>
</svg>
