<svg width="20" height="20" viewBox="0 0 20 20" fill="none" xmlns="http://www.w3.org/2000/svg">
<path d="M7 19.0005H5C2.79086 19.0005 1 17.2096 1 15.0005V8.70805C1 7.30932 1.73061 6.0122 2.92679 5.28724L7.92679 2.25694C9.2011 1.48466 10.7989 1.48466 12.0732 2.25694L17.0732 5.28724C18.2694 6.0122 19 7.30932 19 8.70805V15.0005C19 17.2096 17.2091 19.0005 15 19.0005H13M7 19.0005V15.0005C7 13.3436 8.3431 12.0005 10 12.0005C11.6569 12.0005 13 13.3436 13 15.0005V19.0005M7 19.0005H13" stroke="#003F1B" stroke-width="1.5" stroke-linecap="round" stroke-linejoin="round"/>
</svg>
