<svg width="15" height="15" viewBox="0 0 15 15" fill="none" xmlns="http://www.w3.org/2000/svg">
<path d="M10.2953 12.4999H2.5625C2.35539 12.4999 2.1875 12.3321 2.1875 12.1249V5.99995C2.1875 5.79284 2.35539 5.62495 2.5625 5.62495H4.29226C4.73134 5.62495 5.13822 5.39457 5.36412 5.01807L7.05813 2.1947C7.42369 1.5855 8.28462 1.52758 8.72844 2.08236C8.93762 2.34385 9.00506 2.69142 8.90881 3.01217L8.26981 5.14219C8.19762 5.3828 8.37781 5.62495 8.629 5.62495H11.4884C12.3126 5.62495 12.9113 6.4087 12.6944 7.20382L11.5012 11.5788C11.3529 12.1227 10.8589 12.4999 10.2953 12.4999Z" stroke="#858585" stroke-width="1.5" stroke-linecap="round"/>
<path d="M4.375 12.5V5.625" stroke="#858585" stroke-width="1.5" stroke-linecap="round" stroke-linejoin="round"/>
</svg>
